<mxfile host="app.diagrams.net" modified="2023-06-08T16:36:50.891Z" agent="Mozilla/5.0 (iPad; CPU OS 16_3 like Mac OS X) AppleWebKit/605.1.15 (KHTML, like Gecko) CriOS/114.0.5735.99 Mobile/15E148 Safari/604.1" version="21.3.7" etag="oQNuEjPuTPd1XNAT9EhK" type="github">
  <diagram name="Page-1" id="yqHFAabKqpnFY_fwU_7R">
    <mxGraphModel>
      <root>
        <mxCell id="0" />
        <mxCell id="1" parent="0" />
      </root>
    </mxGraphModel>
  </diagram>
</mxfile>
